<svg
	xmlns="http://www.w3.org/2000/svg"
	viewBox="0 0 100 99.9944">
	
	<g>
		<path d="M82.6917,23.3139a6.007,6.007,0,1,0-6.0056,5.9944,6.0081,6.0081,0,0,0,6.0056-5.9944" transform="translate(0 -0.0028)"/>
		<path d="M90.6944,70.2056a27.9419,27.9419,0,0,1-1.7138,9.2833,15.4429,15.4429,0,0,1-3.7528,5.75,15.27,15.27,0,0,1-5.7417,3.73,27.7929,27.7929,0,0,1-9.2944,1.7362c-5.2695.2333-6.8334.28-20.1973.28-13.3527,0-14.9277-.05-20.1972-.28a27.76,27.76,0,0,1-9.28-1.7362,15.3,15.3,0,0,1-5.75-3.73,15.2539,15.2539,0,0,1-3.7445-5.75,27.5072,27.5072,0,0,1-1.7139-9.2833c-.2555-5.27-.3027-6.8584-.3027-20.1945,0-13.3667.0472-14.9389.3027-20.2111a27.8536,27.8536,0,0,1,1.7139-9.2972,15.2006,15.2006,0,0,1,3.7445-5.7389,15.4963,15.4963,0,0,1,5.75-3.7417,27.7492,27.7492,0,0,1,9.2805-1.7278c5.2695-.2333,6.8445-.2916,20.1972-.2916,13.3667,0,14.9278.0583,20.1973.2916a27.8718,27.8718,0,0,1,9.2944,1.7278,15.4549,15.4549,0,0,1,5.7417,3.7417,15.4229,15.4229,0,0,1,3.7528,5.7389A28.06,28.06,0,0,1,90.6944,29.8c.2445,5.2694.3028,6.8444.3028,20.2111,0,13.3361-.0583,14.9222-.3028,20.1945Zm9.0028-40.8167A36.3657,36.3657,0,0,0,97.3639,17.25,25.4982,25.4982,0,0,0,82.7528,2.625,36.4029,36.4029,0,0,0,70.6139.3083C65.2833.05,63.5806.0028,49.9944.0028,36.4222.0028,34.7056.05,29.375.3056A36.6775,36.6775,0,0,0,17.2361,2.6222,24.6481,24.6481,0,0,0,8.3972,8.3833,24.5709,24.5709,0,0,0,2.625,17.25,36.9183,36.9183,0,0,0,.2917,29.3889C.0583,34.7194,0,36.4222,0,50.0083c0,13.5723.0583,15.275.2917,20.6056A37.1308,37.1308,0,0,0,2.625,82.7528a24.5369,24.5369,0,0,0,5.7722,8.85,24.6443,24.6443,0,0,0,8.8389,5.7722A36.8837,36.8837,0,0,0,29.375,99.6944c5.3306.2445,7.0444.3028,20.6194.3028,13.5862,0,15.2889-.0583,20.62-.3028A36.7894,36.7894,0,0,0,82.7528,97.375,25.588,25.588,0,0,0,97.3639,82.7528a36.5,36.5,0,0,0,2.3333-12.1389c.2445-5.3306.3028-7.0333.3028-20.6056,0-13.5861-.0583-15.2889-.3028-20.6194Z" transform="translate(0 -0.0028)"/>
		<path d="M49.9944,66.6611A16.6653,16.6653,0,1,1,66.6722,50.0083,16.6585,16.6585,0,0,1,49.9944,66.6611Zm0-42.3444A25.6792,25.6792,0,1,0,75.6722,50.0083,25.6813,25.6813,0,0,0,49.9944,24.3167Z"/>
	</g>

</svg>