<svg
	xmlns="http://www.w3.org/2000/svg"
	viewBox="0 0 100 99.991">
	
	<g>
		<path d="M20.3292,41.3426,7.9371,53.7348A27.0989,27.0989,0,0,0,46.2607,92.0584h0l16.5108-16.52a27.0966,27.0966,0,0,0-7.4786-43.6074L50,37.224a9.0525,9.0525,0,0,0-1.391,1.7974,18.0644,18.0644,0,0,1,7.7768,30.14L39.8839,85.6727A18.0745,18.0745,0,0,1,14.3228,60.1115l7.1626-7.1535a36.2894,36.2894,0,0,1-1.1561-11.6244Z" transform="translate(0 -0.0045)"/>
		<path d="M37.2285,24.4524A27.0967,27.0967,0,0,0,44.7071,68.06l7-7.009a18.0644,18.0644,0,0,1-8.0929-30.2217L60.1161,14.3183A18.0744,18.0744,0,0,1,85.6772,39.8794h0l-7.1626,7.1535a36.3393,36.3393,0,0,1,1.1562,11.6245L92.0629,46.2652A27.0989,27.0989,0,0,0,53.7393,7.9416Z" transform="translate(0 -0.0045)"/>
	</g>

</svg>