<svg
	xmlns="http://www.w3.org/2000/svg"
	viewBox="0 0 100 81.2579">

	<path d="M89.7611,29.6012c.0611.8805.0611,1.7639.0611,2.6528,0,27.1083-20.6389,58.375-58.375,58.375v-.0167A58.0585,58.0585,0,0,1,0,81.4151a42.2207,42.2207,0,0,0,4.8833.2972,41.1967,41.1967,0,0,0,25.4806-8.8A20.5412,20.5412,0,0,1,11.1972,58.6651a20.4341,20.4341,0,0,0,9.2639-.3528A20.5182,20.5182,0,0,1,4.0028,38.204v-.2611A20.3778,20.3778,0,0,0,13.3139,40.51a20.54,20.54,0,0,1-6.35-27.3944A58.2355,58.2355,0,0,0,49.2472,34.5484,20.537,20.537,0,0,1,84.2111,15.8345,41.1574,41.1574,0,0,0,97.2389,10.854a20.5828,20.5828,0,0,1-9.02,11.3472A40.8527,40.8527,0,0,0,100,18.9706,41.68,41.68,0,0,1,89.7611,29.6012Z" transform="translate(0 -9.371)"/>

</svg>